<?xml version="1.0" encoding="utf-8"?>
<!-- Svg Vector Icons : http://www.onlinewebfonts.com/icon -->
<!DOCTYPE svg PUBLIC "-//W3C//DTD SVG 1.1//EN" "http://www.w3.org/Graphics/SVG/1.1/DTD/svg11.dtd">
<svg version="1.1" xmlns="http://www.w3.org/2000/svg" xmlns:xlink="http://www.w3.org/1999/xlink" x="0px" y="0px" viewBox="0 0 256 256" enable-background="new 0 0 256 256" xml:space="preserve">
<metadata> Svg Vector Icons : http://www.onlinewebfonts.com/icon </metadata>
<g><g><path fill="#000000" d="M128,10C62.8,10,10,62.8,10,128c0,65.2,52.8,118,118,118c65.2,0,118-52.8,118-118C246,62.8,193.2,10,128,10L128,10z M175.2,107.2L199,129c3.3,3,3.5,8.1,0.5,11.4c-3,3.3-8.1,3.5-11.4,0.5l-58-53.1l-58,53.1c-1.5,1.4-3.4,2.1-5.4,2.1c-2.3,0-4.4-0.9-5.9-2.6c-3-3.3-2.8-8.4,0.5-11.4L124.7,71c3.1-2.8,7.8-2.8,10.9,0l26.1,23.9V71h13.5V107.2L175.2,107.2z M85.3,138.6l44.9-41l44.9,41v56.7c-0.4-0.1-0.8,0-1.3,0h-24.9v-31.9h-37.5v31.9H86.5c-0.5,0-0.9-0.1-1.3-0.3L85.3,138.6L85.3,138.6z M128,26.2c56.2,0,101.8,45.6,101.8,101.8c0,56.3-45.6,101.8-101.8,101.8c-56.3,0-101.8-45.6-101.8-101.8C26.2,71.7,71.7,26.2,128,26.2z"/></g></g>
</svg>